<?xml version="1.0" standalone="no"?>
<!DOCTYPE svg PUBLIC "-//W3C//DTD SVG 20010904//EN"
 "http://www.w3.org/TR/2001/REC-SVG-20010904/DTD/svg10.dtd">
<svg version="1.0" xmlns="http://www.w3.org/2000/svg"
 width="10447.000000pt" height="6317.000000pt" viewBox="0 0 10447.000000 6317.000000"
 preserveAspectRatio="xMidYMid meet">

<g transform="translate(0.000000,6317.000000) scale(0.100000,-0.100000)"
fill="#000000" stroke="none">
<path d="M52045 44334 c-160 -7 -331 -17 -380 -23 -50 -6 -157 -16 -240 -21
-82 -5 -172 -14 -200 -20 -27 -6 -117 -17 -199 -26 -82 -8 -153 -17 -158 -20
-5 -3 -61 -12 -126 -19 -64 -7 -148 -21 -187 -29 -38 -9 -88 -16 -109 -16 -22
0 -72 -9 -110 -19 -39 -11 -100 -22 -134 -26 -35 -3 -76 -11 -90 -17 -15 -5
-61 -16 -102 -23 -41 -7 -106 -20 -145 -29 -38 -9 -113 -26 -165 -37 -52 -12
-122 -30 -156 -40 -33 -11 -72 -19 -87 -19 -14 0 -50 -9 -79 -19 -29 -11 -69
-22 -88 -26 -19 -3 -66 -15 -105 -26 -38 -12 -99 -29 -135 -39 -36 -10 -102
-30 -147 -44 -45 -14 -91 -26 -101 -26 -9 0 -26 -6 -37 -14 -11 -7 -38 -16
-60 -20 -22 -5 -59 -16 -82 -27 -23 -10 -51 -19 -63 -19 -11 0 -37 -8 -58 -19
-20 -10 -56 -22 -79 -26 -24 -4 -45 -11 -48 -16 -3 -4 -25 -13 -48 -19 -23 -6
-55 -17 -72 -25 -16 -7 -50 -20 -75 -28 -68 -23 -131 -46 -167 -62 -17 -8 -37
-15 -45 -15 -7 0 -30 -9 -51 -20 -20 -11 -43 -20 -49 -20 -7 0 -35 -11 -63
-25 -27 -13 -57 -25 -65 -25 -8 0 -28 -9 -45 -20 -16 -11 -38 -20 -49 -20 -10
0 -33 -9 -50 -19 -17 -10 -45 -22 -63 -26 -17 -3 -37 -13 -44 -21 -6 -8 -19
-14 -28 -14 -9 0 -37 -11 -63 -25 -26 -14 -53 -25 -61 -25 -8 0 -25 -8 -38
-18 -13 -11 -37 -22 -54 -26 -16 -4 -37 -13 -45 -21 -8 -7 -26 -16 -40 -20
-23 -6 -91 -37 -250 -114 -36 -18 -72 -36 -80 -41 -8 -5 -62 -32 -120 -61 -58
-28 -145 -73 -195 -100 -49 -27 -108 -58 -130 -69 -22 -11 -58 -31 -80 -44
-22 -14 -53 -32 -70 -40 -16 -9 -52 -29 -80 -45 -27 -16 -63 -36 -80 -45 -16
-9 -48 -27 -70 -41 -22 -14 -53 -33 -70 -41 -29 -15 -52 -28 -149 -89 -166
-103 -550 -358 -554 -367 -2 -4 -9 -8 -16 -8 -7 0 -29 -12 -48 -27 -20 -16
-46 -35 -58 -43 -13 -8 -35 -24 -49 -35 -14 -11 -46 -34 -71 -50 -25 -16 -53
-36 -62 -45 -9 -8 -33 -26 -53 -40 -20 -14 -60 -43 -88 -66 -29 -22 -68 -51
-87 -64 -19 -13 -69 -51 -110 -84 -41 -34 -91 -72 -111 -86 -20 -14 -64 -50
-98 -80 -34 -30 -71 -59 -81 -65 -16 -9 -103 -83 -171 -145 -15 -14 -36 -32
-46 -40 -308 -254 -854 -783 -1158 -1120 -76 -85 -145 -161 -153 -169 -7 -7
-46 -52 -85 -100 -40 -47 -77 -90 -83 -96 -6 -5 -53 -62 -105 -125 -51 -63
-103 -126 -116 -138 -12 -13 -37 -44 -55 -68 -18 -25 -53 -71 -78 -102 -25
-31 -75 -97 -112 -147 -37 -49 -70 -95 -75 -100 -28 -35 -113 -151 -178 -245
-25 -36 -64 -93 -87 -126 -75 -108 -234 -347 -274 -412 -21 -35 -60 -96 -86
-135 -26 -40 -48 -77 -48 -83 0 -6 -7 -17 -16 -24 -8 -8 -22 -27 -30 -44 -8
-17 -25 -47 -37 -67 -12 -20 -42 -72 -67 -114 -25 -42 -55 -94 -67 -114 -12
-20 -27 -47 -33 -60 -6 -13 -19 -36 -30 -51 -11 -16 -20 -34 -20 -42 0 -8 -6
-20 -12 -26 -12 -12 -125 -219 -149 -272 -6 -14 -15 -32 -20 -40 -5 -8 -24
-49 -44 -90 -20 -41 -40 -82 -45 -90 -20 -31 -111 -224 -222 -470 -78 -173
-95 -211 -103 -239 -4 -14 -16 -38 -26 -55 -11 -17 -19 -40 -19 -51 0 -11 -9
-33 -20 -50 -11 -16 -20 -37 -20 -45 0 -8 -9 -32 -20 -53 -11 -20 -20 -43 -20
-49 0 -7 -11 -35 -25 -63 -13 -27 -25 -60 -25 -72 0 -12 -4 -24 -10 -28 -5 -3
-18 -34 -29 -68 -11 -34 -31 -93 -46 -132 -14 -38 -31 -86 -36 -105 -5 -19
-19 -51 -29 -71 -11 -20 -20 -49 -20 -63 0 -15 -9 -44 -19 -64 -11 -20 -24
-55 -29 -77 -11 -43 -44 -151 -61 -200 -29 -84 -44 -136 -57 -194 -8 -35 -21
-76 -29 -92 -8 -15 -15 -41 -15 -56 -1 -15 -8 -46 -16 -68 -9 -22 -22 -67 -29
-100 -25 -109 -51 -186 -66 -196 -8 -5 -405 -9 -961 -9 -916 0 -948 -1 -1010
-20 -34 -11 -73 -20 -85 -20 -12 0 -24 -4 -28 -9 -3 -5 -27 -18 -53 -27 -26
-10 -54 -24 -62 -31 -8 -6 -44 -35 -80 -63 -57 -45 -170 -178 -170 -199 0 -5
-9 -20 -20 -33 -10 -14 -24 -43 -29 -64 -5 -22 -17 -59 -27 -84 -13 -35 -17
-79 -18 -200 0 -166 8 -208 71 -350 27 -61 26 -60 68 -121 l30 -44 3 -1715 c1
-943 0 -1729 -3 -1745 -3 -17 -21 -54 -40 -84 -19 -29 -38 -64 -41 -77 -3 -13
-12 -28 -20 -35 -7 -6 -17 -27 -20 -47 -4 -20 -16 -57 -27 -82 -18 -39 -21
-66 -21 -210 0 -134 3 -174 18 -210 9 -25 22 -60 27 -78 17 -56 56 -121 115
-193 102 -125 214 -198 380 -248 86 -26 229 -28 432 -6 75 8 198 19 272 25 74
6 169 15 210 20 41 6 149 15 239 20 90 5 180 14 200 20 20 5 126 15 236 21
110 6 208 15 217 20 22 12 75 11 83 -1 9 -14 35 -113 56 -210 34 -163 57 -259
98 -415 11 -44 24 -93 27 -110 4 -16 15 -56 25 -87 11 -32 19 -68 19 -80 0
-13 7 -36 16 -53 8 -16 20 -55 26 -85 5 -30 14 -60 19 -66 4 -5 15 -38 23 -71
7 -34 17 -66 20 -72 4 -6 14 -36 22 -68 8 -31 19 -62 24 -68 5 -6 12 -31 16
-55 4 -25 15 -62 25 -82 11 -21 19 -44 19 -53 0 -9 7 -30 16 -47 9 -17 22 -51
29 -77 18 -61 52 -158 71 -198 7 -17 14 -37 14 -45 0 -7 9 -30 20 -51 11 -20
20 -45 20 -54 0 -10 12 -40 25 -68 14 -27 25 -55 25 -60 0 -6 9 -28 20 -50 11
-22 20 -46 20 -55 0 -8 9 -28 20 -45 11 -16 20 -36 20 -43 0 -13 36 -99 65
-155 8 -16 15 -34 15 -40 0 -6 9 -31 21 -56 12 -25 32 -70 45 -98 56 -123 75
-163 122 -263 90 -190 122 -259 122 -266 0 -3 9 -17 20 -31 11 -14 20 -33 20
-41 0 -9 7 -23 15 -32 8 -9 42 -70 75 -136 33 -65 75 -144 92 -174 17 -30 45
-80 62 -111 34 -62 148 -260 183 -317 12 -21 29 -51 37 -68 8 -17 22 -36 30
-44 9 -7 16 -18 16 -24 0 -6 22 -43 48 -82 26 -39 59 -91 74 -115 55 -87 225
-346 286 -433 23 -33 50 -72 60 -86 176 -254 608 -815 716 -930 13 -14 54 -61
91 -105 85 -100 167 -193 223 -254 238 -257 749 -768 938 -936 37 -33 75 -67
84 -76 9 -9 48 -42 86 -74 38 -32 96 -82 129 -111 33 -29 105 -90 160 -134
135 -110 154 -125 200 -159 22 -17 49 -39 60 -50 19 -18 328 -250 403 -303 18
-13 55 -39 81 -58 26 -19 54 -39 62 -45 9 -5 35 -23 59 -40 128 -89 449 -301
591 -390 9 -5 34 -20 55 -33 22 -13 55 -33 75 -45 51 -30 184 -108 222 -130
18 -10 50 -29 72 -42 22 -13 58 -33 80 -45 22 -11 58 -31 80 -44 22 -13 72
-40 110 -61 39 -20 77 -40 85 -45 8 -5 31 -16 50 -25 19 -8 53 -26 75 -40 22
-13 51 -29 65 -34 14 -6 32 -16 40 -21 8 -6 26 -15 40 -21 26 -12 42 -19 75
-36 11 -6 47 -22 80 -37 33 -15 67 -32 75 -37 8 -5 23 -12 34 -16 10 -3 39
-17 63 -30 24 -12 50 -23 57 -23 7 0 25 -9 39 -20 14 -11 30 -20 37 -20 6 0
37 -12 68 -26 31 -14 75 -34 97 -44 22 -10 61 -28 86 -39 25 -12 50 -21 54
-21 4 0 26 -9 49 -19 80 -37 164 -71 175 -71 6 0 25 -9 43 -20 18 -11 39 -20
46 -20 8 0 28 -7 45 -15 18 -8 52 -21 77 -30 76 -28 142 -52 215 -80 39 -15
97 -35 130 -45 80 -25 152 -49 195 -65 43 -16 115 -40 198 -66 162 -50 200
-61 237 -71 22 -6 60 -17 85 -25 25 -8 70 -21 100 -28 30 -8 73 -21 95 -29 22
-8 51 -15 64 -16 13 0 49 -9 80 -19 31 -10 79 -23 106 -29 28 -6 68 -15 90
-21 76 -20 180 -43 251 -56 40 -8 96 -21 125 -29 29 -9 66 -16 83 -16 17 0 60
-9 94 -20 35 -11 76 -20 90 -20 24 0 116 -15 397 -67 50 -9 122 -20 160 -23
39 -4 117 -14 175 -23 264 -40 780 -87 1060 -97 267 -10 1106 -10 1375 0 221
8 615 40 800 64 61 8 142 18 180 21 39 3 106 12 150 20 44 7 122 19 174 25 51
6 112 15 135 20 37 8 132 25 301 52 33 5 93 18 132 29 40 10 87 19 106 19 18
0 57 7 87 15 30 9 87 22 125 29 95 19 251 57 440 106 39 10 89 23 113 29 94
24 129 34 172 48 25 8 71 21 102 28 31 7 76 20 100 28 24 8 84 27 133 42 50
15 106 33 125 40 19 8 51 17 70 20 19 4 44 13 55 20 11 7 36 15 55 19 19 4 55
15 80 25 42 17 58 23 143 52 118 42 177 64 213 80 23 10 48 19 55 19 8 0 31 9
52 20 20 11 45 20 54 20 10 0 33 9 51 20 18 11 38 20 45 20 6 0 35 11 62 25
28 13 57 25 65 25 8 0 29 9 45 20 17 11 36 20 43 20 7 0 39 12 70 26 31 14 77
35 102 46 62 27 96 42 160 71 130 58 174 79 340 160 96 46 182 88 190 91 8 4
51 27 95 51 44 25 116 63 160 86 44 23 98 52 120 65 22 13 58 33 80 44 22 11
58 31 80 45 22 13 54 32 72 42 30 17 147 86 218 128 18 11 64 39 102 63 37 24
77 48 88 55 11 6 58 37 104 67 46 30 91 59 100 65 41 25 243 160 306 205 39
27 80 54 93 59 12 6 22 14 22 19 0 5 10 13 23 19 18 9 174 122 272 198 34 27
92 69 115 85 31 21 191 146 215 167 11 10 83 69 160 132 77 63 145 120 150
127 6 6 37 34 70 60 61 48 211 182 319 284 32 30 100 93 150 140 49 47 160
155 246 240 137 137 215 218 389 405 91 97 228 251 280 314 29 35 58 70 64 76
23 23 97 111 164 195 37 47 74 92 81 100 66 76 277 349 354 459 25 36 62 89
82 116 83 117 133 189 234 339 59 87 112 165 117 174 51 81 104 166 134 212
20 30 43 67 51 82 14 25 73 125 125 213 34 57 81 139 89 155 4 8 18 33 31 55
14 22 34 58 45 80 11 22 34 65 51 95 96 168 282 539 396 790 13 30 35 78 47
105 43 93 54 120 81 185 15 36 35 83 46 105 10 22 19 45 19 50 0 6 12 33 25
60 14 28 25 56 25 62 0 7 9 27 20 45 11 18 20 42 20 53 0 11 9 35 20 53 11 18
20 40 20 49 0 9 8 34 19 57 31 68 71 175 71 191 0 8 9 32 20 52 11 21 20 46
20 55 0 10 9 35 20 55 11 21 20 46 20 56 0 10 9 39 19 65 29 71 51 141 66 205
7 32 18 63 23 70 5 7 13 28 17 47 6 32 16 66 61 205 8 28 22 77 29 110 7 33
20 80 29 105 18 54 31 105 90 355 10 39 23 93 31 120 7 28 17 70 20 95 14 84
52 222 65 230 6 4 28 4 49 -1 20 -5 123 -13 230 -19 107 -5 211 -15 231 -20
21 -6 114 -15 206 -20 93 -6 198 -14 234 -19 36 -5 159 -17 275 -26 115 -9
241 -20 280 -25 128 -17 295 -12 365 10 34 11 67 20 72 20 30 0 150 68 229
130 44 35 159 174 159 192 0 5 9 21 20 35 11 14 20 34 20 45 0 10 10 40 21 66
44 95 43 391 -1 488 -11 23 -20 50 -20 59 0 9 -8 29 -19 43 -10 15 -22 38 -26
52 -4 14 -10 27 -14 30 -10 8 -76 113 -89 140 -6 14 -14 45 -17 70 -3 25 -14
74 -25 110 -10 36 -23 88 -29 115 -12 60 -37 162 -56 230 -8 28 -17 70 -21 95
-3 25 -14 72 -24 105 -10 33 -23 85 -30 115 -26 127 -47 217 -58 250 -14 44
-41 159 -54 225 -5 28 -18 79 -28 115 -26 94 -51 195 -64 270 -7 36 -15 71
-19 77 -7 10 -19 65 -62 266 -8 37 -19 76 -25 86 -5 10 -15 52 -21 92 -6 41
-17 85 -24 99 -7 14 -16 48 -20 75 -4 28 -15 76 -26 107 -10 32 -19 68 -19 81
0 13 -8 53 -19 88 -25 89 -51 194 -63 254 -5 28 -14 62 -20 78 -6 15 -16 57
-24 95 -14 75 -36 165 -65 263 -10 36 -19 76 -19 90 -1 13 -8 42 -16 64 -8 22
-21 72 -29 110 -18 88 -42 185 -61 250 -8 28 -19 74 -24 102 -5 29 -16 65 -23
80 -8 16 -17 44 -21 64 -4 21 -13 42 -20 48 -8 7 -17 23 -20 36 -18 72 -182
264 -281 330 -96 63 -206 112 -268 120 -27 4 -66 13 -87 20 -30 10 -111 14
-330 15 -159 0 -304 3 -320 6 -25 5 -31 12 -36 43 -3 20 -13 58 -21 85 -8 26
-21 74 -28 105 -21 88 -44 173 -56 206 -11 30 -34 109 -64 220 -9 33 -23 74
-31 92 -8 17 -14 39 -14 50 0 10 -9 37 -20 61 -10 23 -22 59 -26 80 -4 20 -15
53 -25 72 -11 19 -19 45 -19 58 0 12 -9 40 -20 62 -11 22 -20 50 -20 62 0 13
-9 37 -20 53 -11 17 -20 39 -20 49 0 11 -8 38 -18 60 -10 23 -24 57 -31 76 -7
19 -23 62 -36 95 -12 33 -28 76 -35 95 -17 48 -49 125 -77 187 -13 28 -23 57
-23 63 0 6 -9 29 -20 51 -11 21 -29 57 -40 78 -11 22 -20 45 -20 51 0 6 -16
46 -36 88 -20 42 -42 94 -50 115 -7 21 -20 48 -29 60 -8 12 -15 29 -15 38 0 9
-8 27 -19 40 -10 13 -22 35 -26 49 -7 22 -81 177 -112 235 -6 11 -16 31 -22
45 -6 14 -15 32 -20 40 -6 8 -26 49 -47 90 -20 41 -46 92 -58 114 -11 21 -27
50 -34 65 -7 14 -17 33 -23 41 -5 8 -16 29 -24 47 -8 17 -19 34 -24 37 -5 4
-12 19 -16 35 -3 16 -15 37 -26 47 -10 9 -19 21 -19 26 0 7 -20 43 -133 236
-15 26 -32 56 -37 67 -6 11 -24 40 -40 65 -17 25 -36 56 -42 70 -7 14 -31 52
-52 85 -41 64 -115 179 -131 206 -46 77 -349 517 -420 609 -19 25 -38 52 -42
60 -3 8 -25 38 -48 65 -23 28 -54 68 -69 90 -15 22 -41 56 -56 75 -16 19 -90
112 -164 205 -75 94 -142 177 -149 185 -12 13 -104 120 -184 215 -61 73 -146
166 -242 266 -57 60 -112 121 -122 136 -19 32 -511 521 -547 545 -13 9 -62 53
-110 99 -102 97 -200 187 -266 244 -26 22 -71 60 -100 85 -70 61 -123 105
-236 197 -52 42 -100 82 -106 88 -6 5 -23 19 -38 30 -15 11 -67 52 -115 90
-48 39 -124 97 -170 130 -45 33 -98 71 -116 85 -126 94 -204 150 -210 150 -4
0 -25 15 -48 33 -23 19 -56 42 -74 53 -17 10 -112 73 -210 138 -98 65 -204
136 -236 157 -32 22 -62 39 -67 39 -4 0 -21 10 -37 23 -15 12 -39 28 -53 35
-29 14 -42 22 -131 79 -36 24 -69 43 -74 43 -5 0 -16 6 -24 14 -9 7 -47 31
-86 51 -38 21 -88 49 -110 62 -22 12 -58 32 -80 43 -22 11 -58 31 -80 44 -22
13 -94 52 -160 85 -66 34 -127 66 -135 71 -8 4 -26 13 -40 19 -14 6 -32 15
-40 20 -8 6 -82 42 -165 81 -82 39 -157 76 -165 81 -8 5 -22 12 -30 15 -8 3
-33 13 -55 23 -22 10 -67 31 -100 45 -33 15 -77 36 -97 46 -20 11 -42 20 -48
20 -10 0 -65 23 -166 71 -23 10 -47 19 -55 19 -8 0 -27 9 -44 20 -16 11 -37
20 -45 20 -8 0 -32 9 -53 20 -20 11 -43 20 -49 20 -7 0 -35 11 -63 25 -27 13
-58 25 -68 25 -9 0 -34 9 -54 20 -21 11 -44 20 -51 20 -7 0 -30 9 -52 20 -22
11 -47 20 -57 20 -10 0 -34 8 -53 19 -19 10 -53 21 -75 25 -22 4 -45 12 -51
17 -13 11 -139 54 -209 72 -27 8 -59 18 -70 24 -11 6 -38 14 -60 18 -22 4 -46
11 -53 17 -6 6 -38 16 -70 23 -31 8 -77 20 -102 28 -131 44 -177 57 -195 57
-11 1 -38 8 -60 16 -22 9 -67 21 -100 29 -33 7 -78 20 -100 29 -22 8 -52 15
-66 16 -14 0 -52 9 -84 20 -32 11 -71 20 -87 20 -15 0 -54 9 -85 19 -32 11
-80 22 -107 25 -27 3 -72 12 -100 20 -55 15 -161 37 -326 67 -58 10 -121 23
-140 29 -19 5 -51 10 -71 10 -19 0 -76 8 -125 19 -49 10 -123 22 -164 26 -41
3 -106 13 -145 20 -38 8 -124 19 -190 25 -66 6 -136 15 -155 20 -20 5 -108 14
-195 20 -88 6 -190 14 -226 20 -121 17 -787 40 -1112 39 -177 -1 -453 -8 -612
-15z m769 -5020 c17 -15 60 -52 96 -84 148 -130 358 -314 404 -353 27 -23 61
-54 75 -68 37 -36 181 -161 215 -187 28 -21 182 -160 215 -193 9 -9 45 -40 81
-70 36 -29 81 -67 100 -85 19 -17 64 -58 100 -90 36 -32 67 -60 70 -63 3 -4
34 -31 70 -61 36 -30 147 -128 246 -217 100 -88 195 -168 213 -177 46 -24 109
-28 140 -8 14 9 109 94 211 190 102 95 225 210 274 255 48 45 128 120 176 167
49 47 132 126 185 175 54 50 137 127 185 173 l88 82 80 0 c78 0 80 -1 134 -42
30 -24 67 -52 83 -63 83 -61 206 -152 292 -218 45 -34 161 -120 258 -192 232
-171 286 -211 310 -230 43 -32 101 -76 120 -91 11 -8 40 -30 65 -48 25 -18 71
-52 103 -77 111 -84 132 -99 155 -109 12 -5 22 -14 22 -19 0 -8 18 -21 90 -66
9 -5 22 -15 30 -22 8 -7 27 -23 42 -35 15 -13 44 -34 64 -48 20 -14 59 -43 87
-65 29 -22 72 -53 97 -70 25 -16 52 -36 62 -45 9 -8 27 -23 40 -33 12 -9 37
-28 54 -42 18 -14 35 -25 38 -25 4 0 42 -28 86 -62 43 -35 105 -82 137 -106
32 -24 90 -66 128 -95 39 -29 113 -83 164 -122 51 -38 100 -74 109 -80 9 -5
41 -29 72 -53 72 -56 67 -51 130 -97 30 -22 60 -43 65 -48 52 -41 232 -175
275 -205 30 -20 62 -43 70 -50 8 -7 33 -27 55 -43 22 -16 49 -36 60 -45 69
-54 281 -212 303 -226 30 -19 64 -45 90 -68 9 -9 37 -29 62 -45 25 -16 52 -35
60 -42 53 -45 73 -61 105 -83 20 -14 63 -45 95 -70 33 -25 85 -63 116 -85 30
-22 66 -49 80 -60 13 -11 55 -42 93 -70 59 -42 72 -56 82 -92 16 -60 -5 -113
-52 -127 -23 -8 -184 -9 -494 -6 l-460 5 -55 43 c-76 60 -224 173 -256 197
-90 66 -284 212 -329 248 -16 13 -37 28 -46 33 -9 5 -34 24 -55 41 -22 18 -56
45 -77 60 -41 31 -163 123 -290 220 -45 34 -108 81 -140 105 -32 24 -104 79
-160 123 -56 44 -122 94 -147 110 -25 17 -51 38 -58 48 -7 9 -17 17 -22 17 -7
0 -109 73 -152 110 -52 43 -71 58 -103 80 -20 14 -60 43 -88 66 -29 22 -68 51
-87 64 -19 13 -70 51 -112 85 -78 61 -198 152 -308 235 -33 25 -97 73 -142
108 -46 34 -110 82 -143 107 -63 46 -76 56 -139 105 -21 16 -42 30 -45 30 -3
0 -22 15 -41 33 -20 17 -49 41 -64 52 -57 40 -86 62 -208 155 -122 94 -123 95
-180 95 -31 0 -62 -5 -69 -12 -24 -24 -29 -128 -28 -559 1 -492 3 -481 -67
-504 -48 -16 -90 -6 -149 35 -86 61 -148 104 -220 156 -38 27 -95 66 -125 86
-30 20 -62 43 -70 50 -40 34 -79 63 -86 63 -4 0 -18 10 -31 22 -20 18 -39 23
-97 26 l-73 4 -61 -51 c-33 -28 -72 -61 -85 -73 -63 -60 -107 -99 -167 -148
-36 -29 -78 -65 -95 -80 -16 -15 -54 -50 -84 -76 -30 -27 -63 -58 -75 -68 -11
-11 -58 -52 -105 -91 -47 -39 -92 -79 -100 -88 -10 -13 -30 -17 -77 -17 -106
0 -102 -11 -106 334 -3 288 -3 291 -28 336 -13 25 -32 52 -42 60 -52 45 -589
550 -685 644 -45 45 -131 127 -190 182 -59 56 -192 181 -295 278 l-187 176
-63 -1 c-35 0 -71 -3 -80 -7 -15 -7 -50 -39 -338 -316 -348 -336 -660 -636
-780 -750 -188 -180 -327 -313 -619 -596 -170 -165 -263 -248 -284 -253 -51
-14 -95 0 -117 36 -18 28 -20 51 -20 198 0 146 -3 172 -20 213 -24 52 -43 66
-94 66 -40 0 -64 -17 -181 -131 -234 -226 -324 -313 -422 -406 -181 -170 -339
-319 -543 -514 -287 -273 -284 -270 -328 -276 -33 -4 -44 -1 -75 27 l-37 32 0
209 0 208 -30 44 c-30 45 -48 63 -80 82 -10 5 -60 38 -111 73 -111 74 -95 63
-239 157 -63 41 -122 80 -130 87 -15 14 -23 18 -86 56 -22 12 -64 38 -94 57
-39 24 -67 34 -96 35 -43 0 -62 -11 -234 -145 -47 -36 -112 -87 -146 -113 -34
-26 -68 -54 -77 -62 -9 -8 -32 -26 -52 -40 -42 -29 -192 -146 -249 -193 -21
-17 -46 -36 -55 -41 -19 -11 -109 -81 -164 -128 -22 -18 -46 -37 -55 -42 -10
-5 -30 -20 -47 -33 -16 -13 -40 -32 -52 -41 -13 -9 -42 -34 -65 -54 -24 -21
-46 -38 -49 -38 -4 0 -58 -40 -120 -90 -63 -49 -151 -117 -196 -152 -110 -84
-277 -214 -410 -318 -59 -47 -119 -88 -133 -92 -13 -4 -233 -8 -488 -8 -511
-1 -503 -2 -517 60 -4 17 -4 48 0 70 5 32 15 46 46 67 37 26 86 62 134 99 11
8 47 35 80 59 33 24 86 64 118 87 31 24 74 55 95 70 20 15 44 33 52 41 8 7 35
26 60 42 25 17 77 55 117 85 71 54 157 119 231 172 20 15 44 33 52 41 8 7 35
26 60 42 25 16 77 55 115 85 39 30 90 69 115 85 25 16 68 48 97 70 50 38 91
69 228 170 33 24 67 50 75 58 8 7 40 30 70 50 30 20 111 79 180 131 69 52 140
105 159 118 18 13 41 30 50 38 16 14 48 38 97 70 12 8 69 50 126 93 213 160
312 233 362 267 29 20 60 42 69 50 21 19 39 32 157 120 90 66 98 70 149 70 38
0 64 -6 90 -22 19 -13 43 -27 52 -33 10 -5 52 -34 94 -62 42 -29 80 -53 84
-53 4 0 16 -9 26 -20 10 -11 24 -20 31 -20 7 0 23 -9 36 -20 35 -30 93 -67
117 -75 12 -3 21 -11 21 -16 0 -6 12 -15 28 -22 15 -7 47 -26 71 -42 24 -17
51 -34 60 -40 9 -5 54 -35 100 -65 126 -83 134 -88 164 -105 15 -9 46 -29 69
-44 31 -21 47 -27 60 -20 9 5 30 9 47 9 46 0 71 14 136 74 33 30 63 56 67 56
4 0 34 23 65 51 32 29 74 66 93 83 19 17 60 49 90 72 30 22 66 52 80 66 14 14
78 68 143 122 65 53 128 106 140 117 12 11 78 66 147 122 69 56 141 117 160
135 19 19 53 46 74 61 l39 26 371 5 c338 5 374 7 406 24 32 17 97 71 192 157
20 19 67 61 104 94 37 33 115 102 173 154 58 52 113 101 122 110 9 9 47 43 85
77 61 53 455 404 633 562 35 31 95 86 132 121 116 108 122 111 212 111 71 0
82 -3 111 -26z m226 -5664 c25 -5 74 -14 110 -20 147 -25 275 -58 325 -84 17
-9 35 -16 41 -16 6 0 38 -14 72 -31 68 -33 107 -73 117 -118 6 -30 -14 -158
-40 -244 -8 -28 -15 -63 -15 -79 0 -15 -9 -54 -19 -85 -11 -32 -22 -70 -25
-85 -4 -19 -19 -34 -46 -48 -59 -30 -121 -26 -265 18 -27 8 -95 21 -150 29
-55 7 -129 18 -165 23 -82 11 -235 12 -320 0 -180 -24 -229 -33 -272 -51 -26
-10 -55 -19 -66 -19 -10 0 -27 -8 -36 -19 -9 -10 -29 -21 -44 -24 -34 -7 -145
-106 -180 -161 -56 -86 -107 -217 -122 -311 -5 -33 -15 -82 -22 -110 -9 -36
-13 -157 -13 -430 0 -395 -1 -379 45 -590 29 -135 97 -268 177 -350 41 -42
112 -95 129 -95 5 0 20 -9 34 -20 14 -11 32 -20 41 -20 9 0 36 -9 60 -19 25
-11 82 -22 134 -26 50 -4 95 -12 102 -17 20 -16 327 14 361 35 9 6 12 143 12
630 l0 622 -28 41 c-15 23 -46 60 -70 84 -55 56 -61 80 -29 114 l24 26 514 0
514 -1 28 -24 c15 -13 27 -31 27 -39 0 -8 -25 -40 -55 -73 -31 -32 -67 -77
-80 -100 l-25 -42 0 -825 0 -826 -26 -50 c-24 -47 -93 -110 -120 -110 -6 0
-22 -8 -35 -19 -13 -10 -38 -21 -56 -25 -17 -4 -48 -16 -69 -27 -21 -10 -48
-19 -60 -19 -12 0 -42 -8 -66 -18 -24 -11 -72 -22 -108 -26 -36 -4 -85 -14
-110 -21 -102 -31 -608 -45 -857 -24 -71 6 -161 19 -202 30 -41 10 -85 19 -97
19 -12 0 -43 9 -69 20 -26 11 -55 20 -65 20 -17 0 -120 41 -150 61 -8 5 -33
18 -55 30 -83 42 -101 53 -145 87 -99 78 -270 261 -270 290 0 5 -8 20 -18 33
-47 61 -127 240 -154 344 -6 22 -17 63 -26 90 -8 28 -21 86 -28 130 -7 44 -18
103 -23 130 -40 202 -40 895 0 1125 5 30 15 93 23 140 8 47 22 105 30 129 9
24 16 54 16 68 0 13 9 41 20 63 11 22 20 45 20 52 0 7 11 36 25 63 13 28 25
57 25 65 0 8 9 26 20 40 11 14 20 30 20 35 0 6 23 42 50 80 28 39 61 86 74
105 36 54 192 189 261 226 11 6 48 27 82 47 34 21 65 37 70 37 4 0 26 9 48 19
94 45 267 99 354 111 36 5 91 16 121 24 64 16 693 21 770 6z m3399 -9 c42 -10
99 -23 126 -29 58 -12 133 -36 190 -62 22 -10 51 -23 65 -29 37 -16 154 -84
171 -99 8 -7 32 -26 54 -42 61 -46 86 -70 140 -138 80 -99 95 -120 95 -130 0
-5 6 -15 14 -21 7 -6 28 -42 46 -79 18 -37 41 -84 51 -104 10 -20 19 -43 19
-50 0 -7 8 -29 19 -48 10 -19 21 -53 25 -75 4 -21 14 -52 22 -67 8 -15 14 -37
14 -49 0 -12 11 -70 24 -128 23 -99 29 -149 57 -431 13 -131 6 -718 -8 -745
-6 -11 -16 -81 -23 -155 -7 -74 -16 -143 -22 -153 -5 -10 -15 -53 -23 -97 -8
-43 -21 -92 -29 -109 -9 -16 -16 -39 -16 -50 0 -33 -131 -311 -156 -332 -8 -6
-14 -16 -14 -21 0 -16 -105 -141 -167 -198 -78 -71 -173 -138 -243 -170 -114
-53 -151 -67 -235 -87 -33 -9 -82 -22 -110 -29 -88 -24 -364 -36 -567 -25
-100 6 -199 15 -218 21 -19 6 -64 17 -100 25 -157 33 -307 97 -455 193 -73 48
-249 218 -260 252 -4 11 -10 20 -15 20 -5 0 -19 17 -30 38 -24 44 -38 68 -62
103 -9 15 -20 39 -24 53 -3 14 -12 30 -20 37 -8 6 -14 19 -14 28 0 9 -9 34
-20 56 -11 21 -23 55 -26 74 -4 19 -15 53 -24 76 -10 22 -21 66 -25 98 -4 32
-13 73 -20 90 -7 18 -18 84 -24 147 -7 63 -17 131 -24 150 -17 50 -17 842 0
885 7 17 17 76 23 132 5 56 19 135 30 175 11 40 20 85 20 101 0 15 8 42 17 60
9 18 20 48 24 67 15 73 132 325 156 334 7 3 13 10 13 16 0 20 109 157 163 206
54 48 141 115 167 128 8 4 33 18 55 31 22 14 56 32 75 40 19 9 46 22 60 29 14
7 43 17 64 20 21 4 49 14 60 21 12 8 51 19 86 24 36 6 90 17 120 25 41 10 130
14 344 15 253 1 299 -1 365 -18z m-16659 -31 c213 -20 394 -53 505 -92 17 -6
48 -15 70 -22 52 -14 230 -103 245 -122 7 -8 17 -14 23 -14 26 0 184 -150 230
-220 62 -92 117 -195 117 -218 0 -8 6 -23 14 -31 8 -9 18 -36 24 -61 6 -25 17
-65 26 -90 43 -129 74 -416 75 -685 1 -183 -23 -482 -44 -549 -8 -27 -15 -62
-15 -77 0 -16 -9 -52 -19 -81 -10 -29 -22 -66 -25 -83 -7 -33 -16 -54 -71
-165 -40 -82 -50 -100 -112 -188 -59 -84 -143 -163 -243 -226 -25 -16 -56 -36
-70 -45 -53 -34 -192 -97 -235 -107 -16 -4 -43 -13 -58 -21 -16 -8 -50 -18
-75 -23 -26 -5 -67 -15 -92 -24 -25 -8 -76 -20 -115 -25 -38 -5 -95 -14 -125
-20 -30 -5 -138 -14 -240 -20 -182 -11 -328 -28 -342 -40 -4 -3 -8 -204 -9
-447 l-1 -441 30 -59 c17 -33 53 -84 81 -114 59 -63 67 -104 29 -140 -28 -26
-29 -26 -225 -39 -90 -6 -174 -16 -188 -21 -13 -5 -116 -14 -229 -19 -112 -6
-214 -15 -227 -19 -27 -10 -164 -22 -277 -23 -57 -1 -77 2 -92 16 -38 34 -27
65 61 175 20 25 48 71 62 102 l27 57 0 1937 0 1937 -30 62 c-17 34 -45 78 -63
96 -42 43 -77 101 -77 125 0 11 14 32 31 47 l31 27 767 -1 c421 0 804 -4 851
-9z m7411 -26 c24 -18 47 -42 50 -55 9 -32 9 -787 0 -819 -4 -16 -17 -28 -39
-34 -30 -8 -37 -5 -106 52 -120 100 -129 102 -454 102 -235 0 -281 -2 -300
-16 l-22 -15 0 -1323 c0 -1517 -9 -1377 96 -1488 67 -69 79 -102 48 -132 -8
-9 -32 -16 -53 -16 -21 0 -51 -4 -67 -10 -16 -5 -189 -15 -384 -21 -528 -17
-528 -17 -564 -29 -65 -21 -126 10 -126 66 0 26 12 47 59 99 44 50 64 83 80
131 21 64 21 68 21 1389 l0 1325 -27 11 c-20 8 -120 8 -333 2 l-305 -8 -37
-26 c-20 -14 -44 -33 -53 -42 -37 -37 -103 -87 -115 -87 -8 0 -24 10 -37 22
l-23 21 0 420 0 420 40 38 c22 21 55 43 73 48 19 6 523 9 1284 8 l1251 -2 43
-31z m2304 16 c23 -11 53 -32 67 -47 24 -27 78 -173 78 -214 0 -11 6 -32 14
-47 8 -15 17 -46 21 -67 6 -38 28 -114 62 -215 8 -25 19 -69 24 -99 5 -29 16
-65 23 -80 8 -15 19 -49 24 -76 6 -28 17 -70 26 -95 14 -43 20 -66 53 -195 8
-33 21 -76 29 -95 7 -19 16 -53 20 -75 4 -22 12 -51 19 -65 7 -14 16 -45 20
-70 4 -25 16 -64 26 -87 11 -23 19 -53 19 -67 0 -14 9 -48 20 -76 11 -28 20
-61 20 -73 1 -12 8 -40 16 -62 9 -22 22 -65 30 -95 7 -30 19 -75 27 -100 14
-44 26 -86 48 -172 6 -24 15 -56 21 -73 6 -16 15 -48 20 -70 6 -22 17 -60 25
-85 8 -25 20 -70 28 -100 8 -30 20 -75 28 -100 8 -25 20 -65 27 -90 6 -25 21
-76 32 -115 11 -38 27 -97 35 -130 8 -33 21 -76 29 -95 7 -19 16 -53 20 -75 4
-22 15 -58 25 -80 10 -22 19 -53 19 -68 0 -16 9 -49 19 -75 11 -26 22 -59 25
-74 3 -15 34 -55 67 -89 71 -72 81 -109 39 -140 -23 -17 -64 -19 -583 -29
-382 -7 -565 -7 -578 0 -29 16 -35 57 -13 85 113 142 114 143 114 211 0 40 -7
82 -20 114 -11 28 -20 62 -20 75 0 13 -9 47 -20 75 -11 28 -20 64 -20 80 0 19
-9 35 -27 50 -24 19 -36 21 -98 16 -38 -3 -245 -10 -460 -16 -284 -8 -393 -14
-402 -23 -10 -11 -31 -80 -64 -217 -5 -25 -18 -65 -27 -90 -21 -60 -20 -136 4
-180 10 -19 38 -54 61 -77 48 -48 59 -74 43 -103 -19 -35 -57 -42 -250 -45
-102 -2 -329 -7 -505 -10 -176 -3 -335 -11 -353 -16 -27 -9 -38 -7 -67 11 -55
34 -49 64 30 146 36 38 65 74 65 82 0 7 8 32 19 55 10 23 22 62 26 87 4 25 13
56 20 70 7 14 16 47 20 75 4 27 13 61 20 75 7 14 18 50 23 80 6 30 18 69 26
85 9 17 16 42 16 56 0 15 7 46 16 70 9 24 22 69 29 99 7 30 20 73 29 95 8 22
15 53 16 68 0 15 6 40 14 55 8 15 17 46 21 67 6 37 18 79 60 215 10 30 24 84
31 119 7 35 18 69 23 75 5 6 14 39 20 71 5 33 16 74 25 90 9 17 16 44 16 60 0
17 7 43 15 58 8 15 19 56 25 90 7 34 17 71 23 82 6 11 16 45 23 75 26 112 47
186 65 232 11 26 19 59 19 73 0 14 8 47 19 73 19 48 41 129 67 242 8 35 19 69
24 75 5 6 12 31 16 55 4 25 13 56 20 70 7 14 18 55 24 90 6 36 16 73 22 84 6
11 16 45 23 75 7 31 20 74 29 96 8 22 15 52 16 66 0 15 9 46 20 70 11 24 20
55 20 68 0 35 49 115 84 137 17 10 47 21 66 25 19 3 233 7 474 8 421 1 441 0
481 -19z m9630 -12 c57 -30 75 -56 165 -233 33 -66 64 -127 69 -135 5 -8 14
-26 20 -40 6 -14 15 -32 21 -40 5 -8 26 -49 45 -90 20 -41 47 -93 60 -115 13
-22 29 -51 35 -65 16 -35 109 -222 120 -240 5 -8 43 -85 85 -170 42 -85 80
-162 84 -170 5 -8 14 -26 20 -40 6 -14 15 -32 20 -40 5 -8 16 -28 24 -45 7
-16 18 -39 24 -50 6 -11 16 -31 22 -45 6 -14 15 -32 20 -40 5 -8 14 -26 20
-40 6 -14 15 -32 21 -40 5 -8 34 -67 65 -130 31 -63 60 -122 64 -130 5 -8 23
-45 41 -82 18 -37 43 -77 56 -89 l24 -22 0 889 c-1 1024 6 950 -95 1055 -63
67 -80 116 -52 154 15 19 29 20 549 23 293 2 547 0 563 -3 21 -3 36 -15 49
-39 21 -39 21 -38 -47 -117 -21 -24 -49 -61 -63 -82 l-24 -38 0 -1660 -1
-1659 27 -42 c15 -24 45 -63 67 -88 21 -25 45 -57 53 -72 13 -26 12 -29 -19
-57 -28 -27 -39 -31 -89 -31 -32 0 -77 5 -100 10 -24 6 -189 16 -368 24 -436
19 -418 10 -539 261 -40 83 -76 157 -81 165 -5 8 -52 103 -105 210 -53 107
-100 202 -105 210 -5 8 -111 220 -235 470 -125 250 -230 462 -235 470 -16 26
-157 314 -164 333 -3 11 -13 17 -23 15 -17 -3 -18 -53 -18 -893 l0 -890 24
-40 c14 -22 46 -63 72 -92 61 -68 70 -100 33 -131 -18 -16 -34 -22 -49 -18
-12 3 -249 11 -526 16 -572 12 -571 12 -577 82 -3 33 3 43 57 99 43 44 64 75
72 103 5 23 14 52 20 66 9 25 8 432 -8 2280 -9 981 2 871 -99 981 -60 66 -69
104 -34 139 21 21 29 21 458 18 l437 -4 50 -26z m4094 3 c44 -31 47 -46 18
-88 -14 -21 -43 -55 -63 -76 -21 -21 -48 -61 -61 -88 l-23 -51 0 -1699 0
-1700 26 -62 c14 -34 53 -94 85 -134 62 -75 70 -100 42 -129 -16 -16 -38 -17
-253 -11 -129 4 -251 11 -270 17 -36 9 -373 30 -510 31 -97 1 -137 13 -155 49
-20 39 -10 63 60 141 32 35 62 75 69 89 15 33 21 3242 7 3373 -10 91 -32 133
-96 192 -12 11 -32 39 -45 62 l-23 42 26 35 27 35 557 -6 c505 -4 560 -7 582
-22z m2849 0 c71 -39 104 -105 137 -276 8 -38 21 -87 29 -107 9 -21 16 -52 16
-70 1 -18 8 -51 16 -73 8 -22 21 -71 29 -110 15 -74 36 -159 66 -265 10 -36
21 -85 25 -109 3 -24 13 -59 20 -77 8 -18 14 -47 14 -63 0 -17 9 -54 19 -83
11 -29 22 -75 26 -103 4 -27 13 -62 21 -77 7 -14 17 -53 20 -85 4 -32 15 -80
25 -106 11 -26 19 -61 19 -78 0 -16 7 -45 15 -65 8 -19 19 -63 25 -97 6 -34
17 -84 25 -112 20 -72 45 -172 56 -230 6 -27 19 -79 29 -115 10 -36 24 -90 30
-120 13 -64 49 -215 92 -385 5 -22 14 -62 20 -90 6 -27 19 -76 29 -108 11 -31
19 -73 19 -93 0 -19 8 -56 19 -82 10 -26 25 -81 34 -122 22 -105 36 -164 58
-245 10 -38 19 -80 19 -93 0 -12 9 -48 20 -79 11 -32 20 -69 20 -83 0 -14 9
-54 19 -90 23 -76 48 -179 66 -270 16 -80 43 -134 112 -225 64 -83 71 -106 48
-142 l-17 -26 -162 6 c-88 3 -174 10 -189 16 -15 6 -118 15 -228 21 -111 5
-218 14 -238 20 -20 6 -115 16 -212 23 -210 16 -229 23 -229 90 0 36 7 49 45
92 73 80 89 122 83 219 -3 46 -11 93 -18 106 -7 12 -18 55 -25 94 -11 63 -34
160 -54 236 -12 48 -50 56 -296 63 -124 4 -234 11 -243 16 -9 5 -122 14 -249
21 -248 13 -263 11 -263 -32 0 -10 -9 -38 -19 -61 -11 -23 -22 -60 -26 -82 -4
-22 -12 -49 -18 -59 -24 -48 -36 -145 -25 -213 9 -61 16 -75 69 -141 63 -79
74 -118 42 -154 -20 -22 -86 -23 -258 -3 -66 8 -214 19 -330 25 -115 6 -226
15 -245 21 -19 5 -114 12 -210 16 -174 6 -175 6 -202 34 -44 43 -37 70 37 152
36 39 65 76 65 82 0 6 9 26 19 46 11 20 22 58 26 85 4 27 15 75 26 107 10 31
19 66 19 77 0 10 9 42 20 70 11 28 20 64 20 81 0 16 7 43 15 60 9 16 20 55 26
87 5 31 18 86 28 122 11 36 24 84 30 108 22 87 34 129 52 188 11 33 19 71 19
85 1 13 8 42 16 64 9 22 20 64 25 94 5 29 16 66 24 82 9 16 18 50 21 76 3 27
14 71 24 98 9 28 22 73 28 100 14 64 38 158 57 215 8 25 18 68 24 95 5 28 16
68 25 90 8 22 15 54 16 70 0 17 9 50 20 74 11 24 20 57 20 75 1 17 8 49 16 71
9 22 22 67 30 100 22 97 45 188 56 220 6 17 16 57 24 90 13 61 33 136 61 235
9 30 22 82 29 115 16 76 39 163 64 240 11 33 20 72 20 86 0 15 7 46 16 70 9
24 22 73 30 109 39 190 84 311 127 342 66 47 73 48 582 45 l480 -2 43 -24z
m-22813 0 c52 -23 93 -78 105 -138 5 -26 16 -65 24 -85 9 -21 16 -49 16 -63 0
-13 9 -48 20 -77 11 -29 20 -64 20 -78 1 -14 8 -43 16 -65 9 -22 22 -67 29
-100 7 -33 20 -80 29 -104 9 -24 16 -57 16 -73 0 -16 6 -41 14 -56 8 -16 19
-56 26 -89 6 -34 17 -75 25 -90 8 -15 15 -40 15 -55 0 -15 11 -62 25 -104 14
-42 25 -87 25 -99 0 -13 9 -42 20 -66 11 -24 20 -59 20 -77 0 -18 8 -54 19
-80 10 -26 23 -69 29 -97 12 -58 36 -148 57 -220 23 -77 45 -165 57 -220 6
-27 17 -69 25 -93 8 -24 21 -69 28 -100 17 -71 40 -157 64 -242 26 -91 40
-146 56 -213 7 -32 20 -75 28 -95 8 -20 18 -59 22 -87 4 -27 13 -61 20 -75 7
-14 16 -47 20 -75 3 -27 15 -70 26 -94 10 -24 19 -56 19 -71 0 -15 9 -47 20
-71 11 -24 20 -60 20 -79 0 -19 9 -53 19 -75 10 -23 21 -62 25 -88 12 -77 50
-150 110 -210 66 -66 72 -98 28 -140 -28 -27 -29 -27 -188 -28 -87 -1 -204 -5
-259 -9 -274 -23 -364 -29 -533 -33 -175 -5 -183 -4 -193 15 -17 32 -1 84 37
125 91 96 98 196 28 413 -7 25 -17 67 -20 94 -4 28 -16 59 -29 74 l-22 26
-394 -18 c-217 -10 -401 -22 -410 -27 -9 -4 -42 -8 -73 -8 -31 1 -63 -4 -70
-11 -8 -6 -18 -41 -22 -78 -4 -36 -12 -80 -19 -97 -7 -16 -16 -61 -20 -100 -4
-38 -14 -90 -23 -115 -9 -25 -16 -79 -16 -120 -1 -83 9 -105 86 -185 51 -53
52 -94 4 -124 -33 -21 -140 -30 -496 -46 -25 -1 -56 -4 -70 -8 -14 -4 -104
-11 -200 -17 -96 -6 -218 -13 -271 -17 -91 -5 -97 -5 -119 17 -34 34 -22 75
48 162 61 76 79 120 107 258 7 36 20 82 29 102 9 21 16 48 16 61 0 13 8 53 19
88 10 35 23 87 29 114 16 72 41 172 58 230 8 28 19 73 24 100 5 28 16 70 24
94 9 24 16 56 16 72 0 15 9 51 20 79 11 28 20 62 20 75 0 14 9 51 20 82 11 32
24 83 29 113 5 30 16 73 25 95 8 22 15 54 16 70 0 17 9 54 20 83 11 29 20 62
20 75 0 12 8 51 19 87 24 82 50 186 66 270 7 36 20 83 29 105 8 22 15 54 16
72 0 18 9 55 20 83 11 28 20 63 20 78 0 15 9 54 20 87 21 65 43 153 64 255 7
36 21 82 30 102 9 21 16 51 16 67 0 17 9 53 20 81 11 28 20 62 20 76 0 13 9
49 19 80 11 30 23 76 26 102 4 26 15 71 26 100 10 29 19 64 19 78 0 14 7 38
15 53 8 16 19 59 25 96 6 37 15 76 21 86 5 10 14 41 19 69 12 63 52 117 105
141 37 17 76 19 500 19 424 0 463 -2 500 -19z m3762 -4571 c47 -21 59 -48 49
-104 -9 -48 -48 -73 -91 -57 -81 29 -174 3 -226 -63 -27 -35 -42 -150 -34
-266 8 -113 19 -142 66 -184 l39 -36 115 0 c126 0 126 0 138 -68 12 -60 -11
-85 -89 -101 -166 -35 -317 3 -398 100 -14 17 -26 37 -26 45 0 8 -9 32 -20 54
-18 35 -20 59 -20 245 0 186 2 210 20 245 11 22 20 45 20 51 0 29 76 103 134
130 56 27 70 29 171 29 87 0 119 -4 152 -20z m1944 1 c35 -28 35 -132 1 -146
-10 -4 -69 -6 -133 -6 -106 2 -117 0 -135 -20 -28 -31 -27 -138 1 -169 19 -21
27 -22 126 -18 126 4 139 -3 139 -69 0 -34 -6 -50 -25 -69 -24 -24 -30 -25
-131 -22 -127 3 -134 -2 -134 -98 0 -92 4 -94 165 -94 81 0 136 -4 140 -10 11
-17 13 -114 3 -133 -8 -16 -28 -17 -251 -15 l-242 3 -3 405 c-1 223 0 419 3
437 3 18 13 34 23 36 9 3 110 5 223 6 188 1 209 -1 230 -18z m1857 -10 c84
-28 116 -54 149 -120 25 -51 27 -67 28 -166 0 -103 -2 -113 -29 -158 -15 -26
-43 -60 -61 -75 -61 -51 -61 -66 -2 -163 49 -82 87 -153 87 -166 0 -10 -22
-13 -93 -13 -89 0 -93 1 -120 29 -15 16 -27 35 -27 41 0 21 -101 191 -117 197
-8 3 -25 1 -38 -5 -24 -11 -24 -15 -27 -134 l-3 -123 -80 -3 c-44 -1 -87 2
-95 8 -13 8 -15 66 -18 402 -1 216 0 403 3 416 3 12 15 32 27 44 20 20 27 20
187 15 130 -4 180 -10 229 -26z m1679 23 c36 -10 63 -65 78 -161 8 -49 21
-106 30 -126 8 -20 15 -56 15 -80 0 -24 9 -70 20 -102 11 -32 20 -71 20 -87 0
-16 5 -38 11 -49 16 -30 35 -8 43 49 4 26 13 67 21 92 7 25 16 69 20 99 3 30
11 63 16 74 6 10 17 58 24 106 16 105 46 176 77 185 13 3 45 6 71 6 39 0 52
-5 73 -27 15 -17 22 -33 18 -42 -23 -54 -33 -90 -34 -119 0 -18 -7 -47 -16
-63 -8 -17 -20 -58 -25 -91 -5 -33 -16 -73 -24 -89 -8 -15 -15 -43 -15 -61 -1
-18 -8 -51 -16 -73 -9 -22 -20 -60 -25 -85 -5 -25 -19 -76 -30 -115 -12 -38
-24 -81 -28 -95 -6 -25 -8 -25 -123 -28 -107 -2 -119 -1 -138 18 -11 11 -20
32 -20 48 -1 15 -8 45 -16 67 -9 22 -21 69 -29 105 -16 76 -28 125 -61 235
-13 44 -24 90 -24 102 0 12 -9 45 -20 73 -11 28 -20 64 -20 81 0 16 -7 43 -16
60 -16 32 -12 59 12 84 16 15 89 20 131 9z m2395 -21 c24 -23 28 -35 28 -80 0
-64 5 -61 -168 -65 -116 -3 -125 -4 -143 -27 -26 -32 -26 -120 0 -152 18 -23
26 -24 139 -25 66 -1 125 -4 131 -8 16 -10 14 -108 -3 -132 -12 -16 -28 -19
-118 -21 -57 -1 -111 -2 -120 -2 -34 -2 -48 -30 -48 -96 0 -93 3 -95 168 -95
75 0 143 -4 150 -9 9 -5 12 -28 10 -77 l-3 -69 -239 -3 c-167 -2 -243 1 -252
9 -11 9 -14 85 -14 415 0 412 3 448 39 457 9 3 106 5 215 6 l200 1 28 -27z
m1938 7 c16 -16 20 -33 20 -87 0 -41 -6 -78 -15 -93 -8 -14 -21 -39 -30 -57
-8 -17 -19 -34 -25 -38 -6 -4 -17 -21 -25 -38 -9 -18 -35 -63 -60 -102 -25
-38 -51 -81 -58 -95 -13 -27 -39 -69 -69 -113 -11 -15 -18 -40 -16 -55 l3 -27
145 -5 144 -5 10 -32 c5 -20 5 -50 0 -75 l-9 -43 -270 0 -270 0 -3 76 c-2 66
1 83 23 124 14 26 30 54 36 62 7 7 19 26 28 42 25 45 59 103 81 136 11 17 27
44 35 62 8 17 19 34 25 38 6 4 17 21 25 38 9 18 23 44 32 59 14 22 15 29 4 42
-11 13 -35 16 -123 16 -95 0 -114 3 -139 21 -25 17 -29 27 -29 67 0 36 6 52
27 74 l27 28 228 0 c215 0 229 -1 248 -20z m1855 -6 c25 -27 45 -81 45 -122 0
-13 7 -36 15 -51 8 -16 18 -55 24 -87 5 -33 17 -76 25 -96 9 -21 16 -50 16
-65 0 -15 9 -46 19 -68 10 -22 21 -63 25 -92 3 -29 15 -71 26 -95 11 -24 20
-61 20 -83 0 -22 7 -49 15 -59 26 -34 2 -46 -92 -46 l-84 0 -24 53 c-14 28
-25 62 -25 74 0 33 -29 43 -123 43 -106 0 -126 -13 -138 -89 -12 -78 -18 -82
-118 -79 l-86 3 -3 42 c-2 26 4 56 16 80 11 21 22 62 26 92 4 30 13 66 21 81
8 16 19 52 24 81 5 30 16 72 25 94 8 22 15 52 16 66 0 15 9 46 20 70 11 24 20
56 20 70 0 41 49 182 67 197 11 7 51 12 110 12 89 0 95 -1 118 -26z m-5807
-1908 c22 -8 78 -18 124 -21 45 -4 120 -16 166 -26 45 -10 106 -19 135 -19 29
0 80 -7 112 -15 33 -9 101 -20 151 -25 55 -5 112 -17 142 -30 48 -21 69 -40
144 -134 16 -18 43 -41 60 -50 18 -10 53 -30 78 -45 25 -16 72 -43 105 -61 33
-18 71 -41 84 -51 13 -11 29 -19 36 -19 6 0 20 -9 30 -20 10 -11 26 -20 36
-20 10 0 21 -5 24 -10 4 -6 23 -20 43 -31 20 -11 53 -30 74 -42 20 -12 66 -39
104 -61 108 -62 136 -84 166 -129 15 -23 28 -56 28 -72 0 -17 9 -62 20 -100
11 -38 20 -84 20 -101 0 -17 7 -51 15 -75 9 -24 22 -84 30 -134 8 -49 21 -115
30 -145 8 -30 15 -69 15 -88 0 -18 7 -49 15 -68 8 -19 17 -59 21 -87 3 -29 15
-86 26 -127 36 -131 12 -236 -63 -283 -54 -32 -102 -39 -151 -21 -24 8 -63 20
-88 25 -25 5 -61 15 -80 23 -59 25 -141 38 -156 25 -19 -15 -41 -149 -75 -444
-6 -49 -19 -130 -30 -180 -10 -49 -19 -115 -19 -145 -1 -30 -7 -84 -15 -120
-8 -36 -19 -99 -24 -140 -11 -85 -44 -153 -90 -188 -59 -43 -195 -21 -269 44
-87 76 -131 85 -158 32 -23 -44 -56 -91 -71 -101 -7 -4 -13 -13 -13 -19 0 -5
-11 -23 -25 -40 -14 -16 -25 -35 -25 -41 0 -7 -9 -18 -20 -25 -11 -7 -20 -17
-20 -24 0 -6 -7 -20 -17 -30 -9 -10 -21 -27 -27 -38 -6 -11 -33 -52 -61 -91
-27 -39 -57 -81 -65 -94 -30 -45 -111 -162 -167 -243 -51 -72 -136 -196 -186
-272 -10 -14 -33 -47 -52 -75 -20 -27 -41 -59 -48 -69 -62 -97 -201 -127 -280
-60 -31 26 -86 102 -87 118 0 5 -7 16 -15 25 -24 25 -212 309 -237 359 -6 12
-15 22 -19 22 -5 0 -16 14 -24 30 -14 26 -59 97 -125 195 -8 12 -24 35 -34 51
-27 40 -208 311 -226 339 -30 44 -54 81 -77 118 -13 20 -29 37 -35 37 -12 0
-88 -48 -98 -62 -10 -12 -81 -58 -128 -82 -46 -23 -84 -30 -149 -27 -79 3
-137 110 -154 280 -5 58 -14 125 -20 150 -6 25 -17 98 -24 161 -8 63 -21 146
-29 185 -9 38 -16 95 -16 125 0 31 -7 83 -16 115 -8 33 -18 94 -21 135 -8 109
-9 110 -85 92 -35 -7 -84 -23 -110 -33 -26 -10 -56 -19 -68 -19 -11 0 -35 -7
-52 -16 -18 -9 -55 -17 -82 -18 -43 -1 -58 4 -101 35 -55 39 -74 76 -74 149 0
59 25 233 37 257 5 10 13 44 16 76 4 31 16 87 27 125 10 37 19 84 19 105 0 20
9 63 20 94 11 32 20 71 20 88 0 17 7 55 15 85 9 30 22 91 29 135 8 44 24 106
36 137 18 49 29 63 73 91 66 41 84 52 127 77 19 12 53 32 75 45 22 13 54 32
70 40 32 17 94 54 220 131 22 13 54 31 70 39 17 9 50 29 75 45 25 16 56 34 70
40 13 6 54 35 90 63 36 29 81 64 100 78 41 29 160 66 246 74 32 4 96 15 141
26 45 10 103 19 130 19 26 0 71 7 98 16 28 8 87 19 132 25 45 5 106 16 135 23
71 19 244 20 296 2z m-5648 -559 c19 -13 44 -28 55 -34 25 -15 160 -94 186
-109 10 -6 28 -19 38 -28 31 -28 97 -33 129 -9 15 11 56 36 92 57 36 20 83 48
105 62 22 14 51 30 65 37 14 7 37 20 52 31 42 27 163 28 203 0 66 -46 111 -72
133 -79 12 -3 22 -10 22 -15 0 -5 10 -12 23 -16 12 -4 49 -25 82 -47 77 -51
122 -58 173 -26 20 14 48 30 62 37 14 7 39 21 55 32 17 11 41 25 55 32 14 7
38 23 53 35 16 13 33 23 38 23 5 0 23 10 40 22 23 18 43 22 97 22 53 0 74 -5
100 -22 80 -55 93 -63 114 -73 13 -5 41 -21 63 -34 22 -13 56 -34 75 -45 19
-11 53 -32 75 -45 22 -13 56 -33 76 -44 20 -11 50 -36 67 -56 27 -30 32 -44
32 -86 0 -36 -6 -58 -22 -80 -25 -33 -80 -69 -106 -69 -25 0 -117 34 -136 49
-15 13 -44 30 -111 66 -16 9 -48 27 -70 41 -22 13 -54 30 -71 38 -17 8 -36 22
-44 30 -18 23 -73 20 -95 -4 -10 -11 -24 -20 -31 -20 -7 0 -19 -6 -26 -13 -7
-7 -44 -31 -81 -53 -38 -21 -85 -49 -105 -61 -42 -25 -59 -33 -120 -58 -41
-17 -44 -17 -100 0 -31 11 -66 27 -77 36 -11 10 -31 23 -45 29 -14 6 -61 33
-105 60 -44 27 -94 56 -111 64 -17 7 -35 19 -38 25 -12 19 -71 13 -91 -9 -10
-11 -23 -20 -29 -20 -6 0 -36 -17 -66 -38 -30 -20 -66 -43 -80 -50 -14 -7 -43
-23 -65 -37 -65 -39 -147 -75 -173 -75 -23 0 -123 38 -142 54 -8 7 -41 28 -73
47 -32 19 -75 44 -95 56 -20 12 -56 32 -80 44 -23 12 -45 25 -48 30 -10 16
-61 9 -79 -11 -10 -11 -23 -20 -29 -20 -6 -1 -36 -16 -66 -35 -30 -19 -70 -42
-87 -51 -18 -9 -33 -20 -33 -24 0 -4 -12 -11 -27 -15 -16 -3 -36 -14 -46 -23
-20 -18 -77 -41 -120 -49 -36 -7 -90 22 -123 64 -32 42 -32 101 0 151 25 38
30 43 106 90 25 15 54 33 65 40 11 7 34 19 52 27 17 8 34 19 38 25 4 6 21 17
38 25 18 8 50 26 72 40 22 13 54 31 72 39 17 9 33 21 35 27 5 16 75 28 128 22
25 -2 61 -14 80 -26z m9309 6 c14 -10 38 -24 53 -33 38 -21 173 -100 217 -127
82 -50 98 -55 134 -38 17 8 52 28 77 45 25 16 59 36 75 45 17 8 48 26 70 40
22 13 54 31 71 39 17 8 36 21 42 29 27 33 194 28 213 -6 5 -8 21 -18 36 -22
16 -3 36 -14 46 -22 20 -19 49 -36 94 -58 17 -8 34 -19 38 -25 4 -6 21 -17 38
-25 18 -9 43 -22 57 -30 37 -21 84 -18 117 8 33 26 54 39 103 65 72 39 104 58
183 110 30 20 50 25 105 25 62 1 72 -2 138 -44 38 -24 79 -49 90 -56 32 -20
233 -137 265 -155 59 -32 97 -74 104 -117 14 -82 -13 -133 -86 -166 -38 -18
-41 -17 -97 1 -31 10 -64 24 -72 31 -9 7 -38 24 -65 38 -46 25 -93 53 -155 95
-14 10 -35 20 -47 24 -12 4 -27 13 -33 21 -16 19 -76 20 -87 2 -4 -8 -20 -20
-35 -28 -26 -14 -143 -82 -216 -126 -20 -13 -48 -28 -62 -34 -14 -6 -38 -17
-53 -25 -16 -8 -38 -14 -50 -14 -27 0 -126 37 -147 54 -8 7 -58 37 -110 66
-52 30 -101 60 -108 67 -7 7 -18 13 -24 13 -5 0 -21 9 -35 20 -14 11 -38 20
-53 20 -15 0 -35 -9 -45 -20 -10 -11 -22 -20 -27 -20 -8 0 -62 -30 -156 -87
-21 -12 -48 -28 -62 -34 -14 -7 -33 -20 -43 -28 -18 -15 -73 -38 -115 -48 -20
-5 -57 6 -127 38 -11 5 -51 30 -90 54 -38 25 -88 54 -110 65 -59 30 -83 45
-103 63 -23 21 -75 22 -92 1 -8 -8 -27 -22 -44 -30 -31 -14 -41 -20 -188 -109
-141 -84 -186 -96 -247 -66 -30 16 -48 34 -63 66 -20 41 -21 50 -10 92 13 48
54 97 102 121 14 7 43 23 65 37 22 13 54 31 72 39 17 9 34 20 38 26 4 6 21 17
38 25 18 8 50 26 72 40 22 13 51 30 65 36 14 7 32 19 41 27 43 35 149 38 198
5z m-8408 -788 c30 -14 86 -45 124 -70 39 -24 88 -54 110 -65 22 -12 58 -32
80 -45 80 -49 82 -50 112 -29 15 10 39 25 53 32 14 7 43 24 65 37 47 29 95 57
150 90 74 45 142 75 166 75 25 0 77 -25 193 -95 36 -22 80 -47 97 -57 17 -9
38 -22 47 -30 9 -8 33 -22 52 -31 19 -9 49 -26 65 -37 17 -11 42 -26 57 -35
14 -8 40 -35 57 -61 28 -40 31 -51 25 -93 -4 -29 -16 -59 -33 -79 -22 -28 -35
-34 -81 -39 -64 -6 -90 4 -235 92 -22 13 -54 31 -71 39 -17 8 -36 22 -44 30
-7 9 -16 16 -21 16 -4 0 -25 11 -45 25 -46 31 -81 32 -125 2 -19 -12 -45 -28
-59 -35 -14 -7 -43 -23 -65 -37 -22 -13 -53 -31 -70 -41 -16 -9 -35 -23 -43
-30 -7 -8 -19 -14 -26 -14 -7 0 -26 -10 -42 -22 -24 -19 -41 -23 -100 -23 -59
0 -78 4 -103 23 -16 12 -35 22 -40 22 -6 0 -18 8 -28 19 -10 10 -29 22 -43 26
-14 4 -32 13 -40 20 -8 6 -42 27 -75 45 -33 19 -62 37 -65 40 -3 4 -16 13 -29
19 -32 17 -75 7 -141 -34 -30 -19 -70 -41 -87 -49 -18 -8 -33 -19 -33 -24 0
-5 -17 -16 -37 -26 -38 -16 -57 -27 -104 -59 -35 -23 -117 -32 -161 -18 -26 9
-39 22 -56 56 -12 25 -22 57 -22 71 0 42 45 118 81 137 19 9 66 37 104 62 39
25 84 51 102 60 17 8 34 19 38 25 4 6 21 17 38 26 18 8 50 26 72 39 64 40 138
74 161 74 12 1 46 -10 75 -24z m8417 -17 c42 -22 88 -49 102 -58 42 -29 84
-54 110 -68 14 -6 43 -23 65 -37 88 -53 86 -53 177 7 31 21 63 38 71 38 8 0
22 9 32 20 10 11 23 20 28 20 5 0 35 17 66 37 68 46 146 83 173 83 22 0 172
-72 198 -94 8 -8 29 -21 45 -30 17 -9 48 -28 70 -41 22 -13 54 -31 70 -40 82
-43 155 -93 181 -124 26 -31 29 -41 27 -100 -2 -62 -4 -68 -39 -100 -35 -32
-39 -33 -100 -28 -43 3 -71 11 -90 26 -15 11 -32 21 -39 21 -6 0 -20 9 -29 19
-10 11 -31 23 -48 26 -16 4 -32 13 -35 21 -2 7 -14 16 -26 20 -12 4 -35 16
-52 27 -16 11 -42 29 -57 39 -58 39 -92 35 -178 -22 -25 -16 -58 -36 -75 -45
-16 -9 -48 -27 -70 -40 -22 -14 -51 -31 -65 -37 -14 -7 -38 -22 -55 -33 -41
-28 -149 -28 -190 -1 -17 11 -55 33 -85 49 -30 16 -66 38 -79 48 -13 11 -28
19 -33 19 -8 0 -21 8 -95 58 -63 43 -95 40 -183 -18 -25 -16 -58 -36 -75 -45
-16 -9 -48 -27 -70 -40 -22 -14 -51 -31 -65 -37 -14 -7 -37 -21 -52 -31 -39
-27 -127 -33 -166 -13 -39 20 -47 36 -56 103 -5 38 -2 61 8 82 18 34 87 96
131 117 17 8 48 26 70 39 22 14 54 31 71 39 17 8 36 22 44 30 7 9 18 16 25 16
7 0 23 8 36 19 48 36 175 100 202 101 15 0 63 -19 105 -42z"/>
<path d="M55915 32896 c-171 -57 -245 -132 -323 -331 -47 -121 -72 -284 -93
-611 -15 -239 16 -707 55 -829 9 -27 16 -59 16 -70 0 -12 9 -38 20 -60 11 -22
20 -46 20 -55 0 -27 95 -163 136 -195 116 -91 165 -108 336 -112 122 -4 143
-2 184 16 26 12 50 21 55 21 16 0 97 60 127 94 45 52 102 141 102 161 0 10 8
32 19 49 10 17 21 54 25 81 3 28 13 70 20 95 57 180 51 1106 -8 1265 -8 22
-15 53 -16 68 0 15 -8 44 -19 65 -10 20 -21 50 -25 65 -13 54 -151 227 -182
227 -6 0 -19 9 -29 20 -10 11 -26 20 -35 20 -9 0 -43 9 -75 20 -83 29 -216 27
-310 -4z"/>
<path d="M39232 32698 c-9 -9 -12 -182 -12 -715 l0 -703 23 -5 c54 -13 534 32
560 53 7 5 29 15 51 22 63 20 136 75 176 130 92 129 125 299 117 610 -5 164
-9 204 -26 252 -12 32 -21 68 -21 82 0 13 -6 29 -14 35 -8 7 -17 25 -21 40 -3
15 -25 47 -48 72 -54 58 -91 79 -207 118 -60 19 -86 21 -315 21 -182 0 -254
-3 -263 -12z"/>
<path d="M49002 32727 c-18 -22 -41 -86 -47 -134 -4 -26 -15 -72 -26 -101 -10
-29 -19 -67 -19 -85 0 -18 -9 -52 -20 -76 -11 -24 -20 -56 -20 -72 0 -16 -9
-56 -20 -88 -10 -32 -24 -83 -29 -112 -5 -30 -16 -72 -25 -94 -8 -22 -15 -52
-16 -68 0 -15 -9 -53 -20 -84 -11 -32 -20 -70 -20 -85 0 -15 -9 -50 -20 -78
-11 -28 -20 -62 -20 -75 0 -13 -12 -60 -26 -104 -14 -45 -23 -88 -20 -96 5
-13 39 -15 223 -14 120 1 270 4 333 8 l115 6 3 44 c2 25 -6 73 -17 110 -22 74
-47 171 -62 246 -6 28 -19 77 -30 110 -11 33 -19 72 -19 88 0 15 -9 53 -20 84
-11 32 -20 66 -20 78 0 11 -9 49 -19 85 -22 73 -49 181 -63 255 -5 28 -18 77
-29 110 -11 33 -19 79 -19 102 0 44 -11 61 -28 40z"/>
<path d="M65510 32498 c-12 -40 -26 -100 -30 -134 -4 -34 -13 -70 -19 -82 -6
-11 -16 -56 -22 -99 -6 -43 -17 -93 -25 -112 -8 -18 -14 -45 -14 -59 0 -14 -9
-60 -20 -101 -18 -71 -33 -141 -60 -271 -6 -30 -18 -80 -27 -110 -8 -30 -18
-82 -23 -115 -5 -33 -16 -82 -24 -110 -37 -126 -75 -339 -64 -358 6 -11 37
-17 130 -22 193 -10 385 -18 488 -19 l95 -1 3 28 c2 15 -4 53 -14 85 -9 31
-23 89 -30 127 -33 172 -46 233 -59 276 -8 26 -18 69 -21 95 -3 27 -15 78 -25
113 -10 35 -19 78 -19 95 0 18 -7 53 -15 77 -9 25 -22 81 -30 124 -7 44 -21
112 -30 150 -9 39 -26 113 -37 165 -11 52 -28 133 -39 180 -10 47 -20 98 -21
114 -5 54 -25 39 -48 -36z"/>
<path d="M42730 32621 c-5 -11 -10 -33 -10 -48 0 -16 -7 -53 -15 -83 -8 -30
-22 -88 -30 -129 -8 -41 -22 -94 -30 -118 -8 -24 -15 -59 -15 -78 0 -19 -9
-57 -20 -85 -11 -28 -20 -66 -20 -85 0 -19 -8 -56 -19 -82 -10 -26 -21 -73
-24 -103 -4 -30 -16 -81 -27 -112 -11 -32 -20 -72 -20 -91 0 -18 -9 -58 -20
-90 -11 -31 -20 -70 -20 -86 0 -16 -9 -57 -19 -92 -30 -99 -34 -134 -17 -148
15 -13 389 -8 576 7 l85 7 3 38 c2 21 -6 65 -17 97 -12 33 -21 73 -21 88 0 16
-8 53 -18 83 -11 30 -22 80 -26 112 -3 32 -13 71 -20 85 -8 15 -17 56 -21 92
-4 36 -16 87 -26 113 -11 26 -19 63 -19 83 0 19 -7 51 -15 71 -8 20 -20 68
-26 107 -6 39 -17 89 -24 111 -8 22 -17 62 -20 88 -4 26 -12 62 -19 80 -8 18
-17 59 -20 92 -4 33 -9 68 -12 78 -7 23 -41 22 -54 -2z"/>
<path d="M50615 28863 c-38 -9 -45 -32 -45 -144 0 -126 7 -139 76 -139 50 0
118 30 134 59 11 22 13 150 2 168 -11 17 -107 63 -128 62 -11 -1 -28 -3 -39
-6z"/>
<path d="M58566 28773 c-18 -18 -47 -101 -52 -152 -4 -31 -13 -69 -21 -85 -21
-40 -5 -51 74 -51 86 0 92 9 65 101 -11 38 -24 96 -28 128 -9 56 -21 76 -38
59z"/>
<path d="M52595 26730 c-38 -4 -90 -15 -114 -24 -24 -9 -64 -16 -90 -16 -25 0
-73 -7 -106 -15 -33 -9 -95 -19 -138 -24 -43 -5 -80 -11 -83 -14 -15 -15 14
-50 94 -115 48 -39 109 -92 135 -116 27 -25 99 -88 160 -140 101 -85 175 -149
217 -189 8 -8 25 -20 38 -26 27 -14 40 -7 112 59 25 22 74 67 110 98 35 31
105 93 155 137 49 44 141 125 203 179 61 54 112 103 112 107 0 13 -95 33 -235
50 -44 6 -123 19 -175 30 -110 22 -295 31 -395 19z"/>
<path d="M51621 26410 c-13 -11 -29 -20 -36 -20 -7 0 -18 -7 -25 -16 -8 -8
-27 -22 -44 -30 -17 -8 -49 -25 -71 -39 -22 -13 -53 -32 -70 -41 -76 -41 -96
-52 -110 -64 -17 -14 -63 -40 -110 -63 -17 -8 -47 -29 -66 -48 -32 -31 -37
-41 -43 -103 -4 -38 -13 -84 -21 -103 -8 -19 -19 -69 -24 -112 -6 -42 -15 -90
-21 -106 -7 -17 -16 -57 -20 -90 -5 -33 -12 -70 -16 -82 -10 -34 35 -41 100
-16 28 11 69 25 91 30 40 11 55 15 150 48 28 9 75 23 105 30 31 7 70 20 87 29
18 9 42 16 55 16 13 0 55 13 93 28 l70 29 92 179 c50 98 95 186 98 194 3 8 17
36 31 61 13 26 24 56 24 67 0 31 -241 242 -276 242 -10 -1 -30 -10 -43 -20z"/>
<path d="M53729 26413 c-17 -20 -118 -109 -189 -168 -25 -20 -49 -43 -53 -51
-7 -12 7 -47 45 -114 5 -8 15 -31 23 -50 9 -19 20 -42 25 -50 6 -8 15 -26 21
-40 6 -14 15 -32 20 -40 5 -8 18 -33 29 -55 41 -83 88 -160 101 -166 74 -35
114 -49 140 -49 16 0 47 -9 69 -20 22 -11 47 -20 56 -20 15 0 124 -32 209 -62
17 -5 53 -16 80 -23 28 -7 67 -20 87 -29 44 -19 95 -21 100 -4 3 7 -2 33 -9
58 -8 25 -21 81 -29 125 -7 44 -21 105 -29 135 -8 30 -15 68 -15 86 0 17 -9
57 -20 89 -11 32 -20 71 -20 87 0 23 -9 34 -47 58 -27 16 -53 30 -59 30 -6 0
-17 7 -24 16 -8 8 -27 22 -44 30 -17 8 -49 25 -71 39 -22 13 -51 29 -65 35
-14 6 -32 18 -40 25 -9 8 -43 28 -75 46 -33 17 -67 38 -76 45 -8 8 -19 14 -23
14 -4 0 -19 9 -33 20 -32 25 -64 26 -84 3z"/>
<path d="M52227 25898 c-14 -18 -28 -44 -32 -58 -4 -14 -13 -32 -20 -40 -7 -8
-16 -26 -20 -40 -4 -14 -16 -36 -26 -49 -11 -13 -19 -30 -19 -38 0 -8 -9 -28
-20 -43 -24 -33 -35 -80 -26 -113 3 -13 22 -46 43 -73 21 -27 45 -61 53 -76
22 -40 89 -137 125 -183 18 -22 40 -53 49 -70 29 -53 125 -195 141 -210 6 -5
22 -28 36 -50 13 -22 29 -47 34 -56 59 -94 173 -249 184 -249 9 0 61 64 61 75
0 3 8 18 19 33 19 28 88 132 106 160 6 9 22 34 38 56 15 23 53 79 84 126 31
47 68 102 82 123 14 20 35 52 46 71 31 51 103 159 117 176 15 16 24 31 55 88
13 22 27 43 33 47 15 9 12 61 -4 74 -8 7 -17 24 -21 38 -3 15 -15 38 -26 51
-10 14 -19 31 -19 39 0 8 -9 26 -20 40 -11 14 -20 33 -20 43 0 10 -8 28 -18
41 -10 13 -23 36 -30 52 -21 49 -47 35 -205 -108 -213 -193 -253 -211 -359
-159 -53 27 -72 42 -228 184 -45 41 -90 79 -99 84 -9 5 -24 17 -34 27 -24 26
-32 24 -60 -13z"/>
<path d="M51661 25279 c-24 -4 -48 -13 -55 -18 -6 -5 -34 -15 -61 -21 -119
-28 -128 -41 -100 -154 9 -39 21 -115 26 -169 5 -54 16 -128 23 -165 8 -37 17
-98 20 -137 9 -90 36 -236 49 -252 7 -10 21 -4 56 25 25 21 66 51 91 67 24 17
90 64 145 105 104 78 146 108 174 125 37 22 81 65 81 79 0 8 -11 28 -25 44
-14 17 -25 34 -26 38 0 5 -15 29 -34 54 -38 51 -65 89 -121 174 -21 32 -46 68
-54 81 -8 12 -24 35 -34 51 -56 83 -70 90 -155 73z"/>
<path d="M53687 25283 c-9 -2 -26 -21 -37 -41 -12 -20 -28 -49 -38 -63 -9 -14
-27 -41 -39 -60 -13 -19 -27 -41 -33 -49 -48 -71 -60 -92 -60 -99 0 -5 -7 -14
-15 -21 -8 -7 -29 -38 -47 -69 -17 -31 -42 -69 -55 -84 -13 -16 -23 -34 -23
-41 0 -16 36 -53 84 -86 20 -14 48 -35 62 -47 14 -13 29 -23 33 -23 7 0 94
-63 136 -98 6 -5 35 -25 65 -46 30 -21 57 -41 60 -44 15 -20 73 -53 88 -50 14
2 19 19 25 83 4 44 16 123 27 175 11 52 20 120 20 150 0 30 9 94 20 142 10 48
22 133 26 187 l7 100 -34 15 c-47 19 -187 63 -224 69 -16 3 -38 3 -48 0z"/>
<path d="M52292 24413 c-10 -10 -38 -31 -62 -48 -87 -57 -170 -125 -170 -139
0 -5 11 -26 23 -45 13 -20 47 -72 75 -116 28 -44 65 -100 82 -125 41 -60 113
-168 125 -190 6 -10 17 -26 25 -35 8 -9 19 -25 25 -35 10 -18 110 -170 146
-222 11 -15 19 -31 19 -36 0 -5 9 -17 19 -26 11 -10 22 -28 25 -42 4 -13 10
-24 15 -24 5 0 25 -27 46 -60 21 -33 41 -60 46 -60 8 0 35 33 74 90 27 40 121
175 165 238 16 23 30 46 30 51 0 4 11 18 25 31 14 13 25 29 25 35 0 7 9 20 20
30 11 10 20 22 20 27 0 5 17 30 38 57 20 27 45 61 54 77 10 16 45 67 78 114
97 137 160 231 160 239 0 5 -19 21 -42 37 -24 16 -63 44 -88 64 -25 19 -52 40
-62 45 -9 6 -37 25 -62 43 -26 17 -50 32 -54 32 -4 0 -16 -15 -27 -32 -11 -18
-27 -42 -35 -54 -8 -12 -54 -80 -102 -152 -75 -110 -95 -133 -132 -152 -115
-55 -173 -28 -302 145 -8 11 -49 73 -92 138 -79 121 -95 134 -130 100z"/>
</g>
</svg>
